<?xml version="1.0" encoding="utf-8"?>
<svg viewBox="-10 -7 80 67.5" xmlns="http://www.w3.org/2000/svg">
  <path d="M21.087 0H2.913A2.917 2.917 0 0 0 0 2.913v18.174A2.917 2.917 0 0 0 2.913 24h18.174A2.917 2.917 0 0 0 24 21.087V2.913A2.917 2.917 0 0 0 21.087 0ZM22 21.087a.915.915 0 0 1-.913.913H2.913A.915.915 0 0 1 2 21.087V2.913A.915.915 0 0 1 2.913 2h18.174a.915.915 0 0 1 .913.913ZM51.087 0H32.913A2.917 2.917 0 0 0 30 2.913v18.174A2.917 2.917 0 0 0 32.913 24h18.174A2.917 2.917 0 0 0 54 21.087V2.913A2.917 2.917 0 0 0 51.087 0ZM52 21.087a.915.915 0 0 1-.913.913H32.913a.915.915 0 0 1-.913-.913V2.913A.915.915 0 0 1 32.913 2h18.174a.915.915 0 0 1 .913.913ZM21.087 30H2.913A2.917 2.917 0 0 0 0 32.913v18.174A2.917 2.917 0 0 0 2.913 54h18.174A2.917 2.917 0 0 0 24 51.087V32.913A2.917 2.917 0 0 0 21.087 30ZM22 51.087a.915.915 0 0 1-.913.913H2.913A.915.915 0 0 1 2 51.087V32.913A.915.915 0 0 1 2.913 32h18.174a.915.915 0 0 1 .913.913Z" style="paint-order: stroke; fill: rgb(255, 255, 255);" transform="matrix(1, 0, 0, 1, 0, 1.7763568394002505e-15)"/>
  <circle cx="53" cy="48.02" r="1" style="fill: rgb(255, 255, 255);" transform="matrix(1, 0, 0, 1, 0, 1.7763568394002505e-15)"/>
  <circle cx="31" cy="48.07" r="1" style="paint-order: stroke; fill: rgb(255, 255, 255);" transform="matrix(1, 0, 0, 1, 0, 1.7763568394002505e-15)"/>
  <circle cx="53" cy="35.92" r="1" style="fill: rgb(255, 255, 255);" transform="matrix(1, 0, 0, 1, 0, 1.7763568394002505e-15)"/>
  <circle cx="51.05" cy="31" r="1" style="paint-order: stroke; fill: rgb(255, 255, 255);" transform="matrix(1, 0, 0, 1, 0, 1.7763568394002505e-15)"/>
  <circle cx="53" cy="41.97" r="1" style="fill: rgb(255, 255, 255);" transform="matrix(1, 0, 0, 1, 0, 1.7763568394002505e-15)"/>
  <circle cx="31" cy="35.97" r="1" style="paint-order: stroke; fill: rgb(255, 255, 255);" transform="matrix(1, 0, 0, 1, 0, 1.7763568394002505e-15)"/>
  <circle cx="38.95" cy="31" r="1" style="paint-order: stroke; fill: rgb(255, 255, 255);" transform="matrix(1, 0, 0, 1, 0, 1.7763568394002505e-15)"/>
  <circle cx="32.94" cy="53" r="1" style="paint-order: stroke; fill: rgb(255, 255, 255);" transform="matrix(1, 0, 0, 1, 0, 1.7763568394002505e-15)"/>
  <circle cx="45" cy="31" r="1" style="paint-order: stroke; fill: rgb(255, 255, 255);" transform="matrix(1, 0, 0, 1, 0, 1.7763568394002505e-15)"/>
  <path d="M32.9 32h.01a1 1 0 1 0-1.01-.99 1 1 0 0 0 1 .99Z" style="paint-order: stroke; fill: rgb(255, 255, 255);" transform="matrix(1, 0, 0, 1, 0, 1.7763568394002505e-15)"/>
  <circle cx="31" cy="42.02" r="1" style="paint-order: stroke; fill: rgb(255, 255, 255);" transform="matrix(1, 0, 0, 1, 0, 1.7763568394002505e-15)"/>
  <path d="M51.1 52h-.01a1 1 0 0 0 0 2h.1a1 1 0 0 0-.09-2Z" style="fill: rgb(255, 255, 255);" transform="matrix(1, 0, 0, 1, 0, 1.7763568394002505e-15)"/>
  <circle cx="45.04" cy="53" r="1" style="fill: rgb(255, 255, 255);" transform="matrix(1, 0, 0, 1, 0, 1.7763568394002505e-15)"/>
  <circle cx="38.99" cy="53" r="1" style="paint-order: stroke; fill: rgb(255, 255, 255);" transform="matrix(1, 0, 0, 1, 0, 1.7763568394002505e-15)"/>
  <path d="M47 41h-4v-4a1 1 0 0 0-2 0v4h-4a1 1 0 0 0 0 2h4v4a1 1 0 0 0 2 0v-4h4a1 1 0 0 0 0-2Z" style="paint-order: stroke; fill: rgb(255, 255, 255);" transform="matrix(1, 0, 0, 1, 0, 1.7763568394002505e-15)"/>
</svg>