    <!-- Icône Bouteilles -->
        <!-- Créé par Pro Player de the Noun Project : https://thenounproject.com/wahidilham002/-->
        <!-- Changements: viewBox -->
        <!-- License: https://creativecommons.org/licenses/by/3.0/legalcode -->
    <svg xmlns="http://www.w3.org/2000/svg" viewBox="0 -15 100 125">
        <g data-name="Layer 2">
            <path
                d="M54.625 10.341a2.407 2.407 0 0 0-2.4-2.4h-8.77a2.408 2.408 0 0 0-2.405 2.4V31.45a14.408 14.408 0 0 0-7.6 12.685v45.524a2.407 2.407 0 0 0 2.405 2.4h23.963a2.407 2.407 0 0 0 2.405-2.4V44.135a14.381 14.381 0 0 0-7.6-12.683ZM36.449 51.5H48.87v22.533H36.449ZM55.89 36.086a11.311 11.311 0 0 1 3.333 8.049v44.929H36.449V77.033H50.37a1.5 1.5 0 0 0 1.5-1.5V50a1.5 1.5 0 0 0-1.5-1.5H36.449v-4.36a11.4 11.4 0 0 1 6.713-10.384 1.5 1.5 0 0 0 .884-1.368V10.936h7.579V24.46h-4.342a1.5 1.5 0 0 0 0 3h4.342v4.923a1.5 1.5 0 0 0 .881 1.367 11.439 11.439 0 0 1 3.384 2.336ZM94 87.364V61.519a25.029 25.029 0 0 0-3.134-12.109l-2.9-5.264a32.639 32.639 0 0 1-4.071-15.77v-5.437a1.5 1.5 0 0 0 1.271-1.477V15a7.1 7.1 0 0 0-14.2 0v6.465a1.5 1.5 0 0 0 1.272 1.477v5.437a32.639 32.639 0 0 1-4.071 15.77 1.5 1.5 0 1 0 2.622 1.451 35.653 35.653 0 0 0 4.446-17.223v-5.415h.213a1.5 1.5 0 0 0 0-3h-1.485V15a4.1 4.1 0 0 1 8.2 0v4.965H79.67a1.5 1.5 0 0 0 0 3h1.223v5.414A35.65 35.65 0 0 0 85.338 45.6l2.18 3.953-9.454 6.531L71 51.2a1.5 1.5 0 1 0-1.7 2.467l7.914 5.469a1.505 1.505 0 0 0 1.706 0l10.01-6.915a22.026 22.026 0 0 1 2.07 9.3v25.843a1.708 1.708 0 0 1-1.712 1.7H66.84a1.5 1.5 0 0 0 0 3h22.448a4.711 4.711 0 0 0 4.712-4.7Z" />
            <path
                d="M85.856 80.36a1.5 1.5 0 0 0 1.5-1.5V67.636a1.5 1.5 0 0 0-1.5-1.5H70.271a1.5 1.5 0 0 0-1.5 1.5V78.86a1.5 1.5 0 0 0 1.5 1.5ZM71.771 69.136h12.585v8.224H71.771ZM10.448 92.064h17.306a1.5 1.5 0 1 0 0-3H10.448A1.45 1.45 0 0 1 9 87.616V76.483h13.546a1.5 1.5 0 0 0 1.5-1.5V50.842a1.5 1.5 0 0 0-1.5-1.5H11.3c5.136-11.833 4.427-17.9 4.2-19.114V12.791a1.857 1.857 0 0 1 1.855-1.855h5.49a1.857 1.857 0 0 1 1.855 1.855v12.2h-4.4a1.5 1.5 0 0 0 0 3h4.4v2.231c-.191.973-.673 4.833 1.616 12.218a1.5 1.5 0 0 0 2.865-.888c-2.279-7.356-1.532-10.781-1.528-10.8a1.511 1.511 0 0 0 .047-.372V12.791a4.861 4.861 0 0 0-4.855-4.855h-5.49a4.861 4.861 0 0 0-4.855 4.855v17.588a1.626 1.626 0 0 0 .043.355c.013.054 1.18 5.487-4 17.417A30.517 30.517 0 0 0 6 60.366v27.25a4.454 4.454 0 0 0 4.448 4.448Zm10.6-18.581H9V60.366a27.4 27.4 0 0 1 1.2-8.024h10.846Z" />
        </g>
    </svg>