<svg xmlns="http://www.w3.org/2000/svg" viewBox="-10 -10 310 310"><svg xmlns="http://www.w3.org/2000/svg" viewBox="-10 0 90 67.5"><path fill="#fff" d="M66 4.7C64.8 3.6 63.3 3 61.7 3H15.2c-3.3 0-6 2.7-6 6v47H3.3c-.6 0-1 .4-1 1v4c0 1.6.6 3.1 1.7 4.2C5.2 66.4 6.7 67 8.3 67H60c1.9 0 3.7-.8 4.9-2.3 1.2-1.4 1.8-3.3 1.5-5.2L63.7 44c-.3-1.7-1.7-3-3.5-3h-2.4V14.9h8.9c.6 0 1-.4 1-1V9c0-1.7-.6-3.1-1.7-4.3zM8.3 65c-1.1 0-2-.4-2.8-1.2-.7-.7-1.2-1.7-1.2-2.8v-3h36.1l-.3 1.6c-.3 1.9.2 3.8 1.5 5.2l.3.3H8.3zm53.4-20.7 2.5 15.5c.2 1.3-.2 2.6-1 3.6S61.1 65 59.8 65H46.5c-1.3 0-2.5-.6-3.4-1.6-.8-1-1.2-2.3-1-3.6l2.5-15.5c.1-.7.8-1.3 1.5-1.3h14c.9 0 1.5.6 1.6 1.3zM46.2 41c-1.2 0-2.3.6-2.9 1.6h-14c-.6 0-1 .4-1 1s.4 1 1 1h13.4L40.8 56H11.2V9c0-2.2 1.8-4 4-4h42.1c-.9 1-1.5 2.4-1.5 4v32h-9.6zm19.5-28.1h-7.9V9c0-2.1 1.5-3.7 3.6-3.9h.1c1.1-.1 2.2.3 3 1.1.7.7 1.2 1.7 1.2 2.8v3.9z" class="color000 svgShape"/><path fill="#fff" d="M22.6 11h-4.4c-1.3 0-2.3 1-2.3 2.3v4.4c0 1.3 1 2.3 2.3 2.3h4.4c1.3 0 2.3-1 2.3-2.3v-4.4c0-1.3-1-2.3-2.3-2.3zm.3 6.7c0 .2-.1.3-.3.3h-4.4c-.2 0-.3-.1-.3-.3v-4.4c0-.2.1-.3.3-.3h4.4c.2 0 .3.1.3.3v4.4zm27.2-5.1H29.2c-.6 0-1 .4-1 1s.4 1 1 1H50c.6 0 1-.4 1-1s-.4-1-.9-1zm-20.9 5.8h9.4c.6 0 1-.4 1-1s-.4-1-1-1h-9.4c-.6 0-1 .4-1 1s.5 1 1 1zM22.6 26h-4.4c-1.3 0-2.3 1-2.3 2.3v4.4c0 1.3 1 2.3 2.3 2.3h4.4c1.3 0 2.3-1 2.3-2.3v-4.4c0-1.3-1-2.3-2.3-2.3zm.3 6.7c0 .2-.1.3-.3.3h-4.4c-.2 0-.3-.1-.3-.3v-4.4c0-.2.1-.3.3-.3h4.4c.2 0 .3.1.3.3v4.4zm27.2-5.1H29.2c-.6 0-1 .4-1 1s.4 1 1 1H50c.6 0 1-.4 1-1s-.4-1-.9-1zm-11.5 3.8h-9.4c-.6 0-1 .4-1 1s.4 1 1 1h9.4c.6 0 1-.4 1-1s-.4-1-1-1zm-16 9.6h-4.4c-1.3 0-2.3 1-2.3 2.3v4.4c0 1.3 1 2.3 2.3 2.3h4.4c1.3 0 2.3-1 2.3-2.3v-4.4c0-1.2-1-2.3-2.3-2.3zm.3 6.8c0 .2-.1.3-.3.3h-4.4c-.2 0-.3-.1-.3-.3v-4.4c0-.2.1-.3.3-.3h4.4c.2 0 .3.1.3.3v4.4zm6.3.7h9.4c.6 0 1-.4 1-1s-.4-1-1-1h-9.4c-.6 0-1 .4-1 1s.5 1 1 1zm27.2-2v3.3c0 1.7-1.4 3.2-3.2 3.2S50 51.6 50 49.9v-3.3c0-.6-.4-1-1-1s-1 .4-1 1v3.3c0 2.9 2.3 5.2 5.2 5.2 2.9 0 5.2-2.3 5.2-5.2v-3.3c0-.6-.4-1-1-1s-1 .4-1 .9z" class="color000 svgShape"/></svg></svg>